<?xml version="1.0" encoding="utf-8"?>
<!-- Generator: Adobe Illustrator 24.3.0, SVG Export Plug-In . SVG Version: 6.00 Build 0)  -->
<svg version="1.1" id="_x32_" xmlns="http://www.w3.org/2000/svg" xmlns:xlink="http://www.w3.org/1999/xlink" x="0px" y="0px"
	 viewBox="0 0 512 512" style="enable-background:new 0 0 512 512;" xml:space="preserve">
<style type="text/css">
	.st0{fill:#1A4D86;}
</style>
<g>
	<path class="st0" d="M478,400.3c-19.4-18.4-81.4-56-97.1-61.1c-15.7-5.1-36.3,8.7-43.3,27.4c-7,18.7-16.9,16-16.9,16
		s-37.2-17.5-101.5-93.7s-75.2-115.9-75.2-115.9s-1-10.2,18.7-13.9c19.6-3.7,36.7-21.8,34.3-38.1c-2.3-16.3-28.9-83.9-43.8-106.1
		C138.4-7.3,105.2,0.6,97.6,5.1C90,9.7,10.8,50.8,25.8,140.6c14.9,89.8,57.3,164.3,105.9,222c48.6,57.7,114.9,112.1,200.9,142
		c86,29.9,140-41.1,145.7-47.8C484,450.2,497.4,418.8,478,400.3z"/>
</g>
</svg>
